<svg width="38" height="41" viewBox="0 0 38 41" fill="none" xmlns="http://www.w3.org/2000/svg">
<path d="M5.70312 35.3073C5.70313 36.2888 6.09303 37.2301 6.78708 37.9242C7.48112 38.6182 8.42245 39.0081 9.40397 39.0081C10.3855 39.0081 11.3268 38.6182 12.0209 37.9242C12.7149 37.2301 13.1048 36.2888 13.1048 35.3073C13.1048 34.3258 12.7149 33.3844 12.0209 32.6904C11.3268 31.9964 10.3855 31.6064 9.40397 31.6064C8.42245 31.6064 7.48112 31.9964 6.78708 32.6904C6.09303 33.3844 5.70313 34.3258 5.70312 35.3073ZM24.2074 35.3073C24.2074 36.2888 24.5973 37.2301 25.2913 37.9242C25.9854 38.6182 26.9267 39.0081 27.9082 39.0081C28.8897 39.0081 29.8311 38.6182 30.5251 37.9242C31.2192 37.2301 31.6091 36.2888 31.6091 35.3073C31.6091 34.3258 31.2192 33.3844 30.5251 32.6904C29.8311 31.9964 28.8897 31.6064 27.9082 31.6064C26.9267 31.6064 25.9854 31.9964 25.2913 32.6904C24.5973 33.3844 24.2074 34.3258 24.2074 35.3073Z" stroke="#CF102D" stroke-width="4" stroke-linecap="round" stroke-linejoin="round"/>
<path d="M5.70085 35.3076H2V24.2051M2 24.2051L5.70085 14.953H22.3547L29.7564 24.2051M2 24.2051H29.7564M29.7564 24.2051H31.6068C32.5883 24.2051 33.5296 24.595 34.2237 25.289C34.9177 25.9831 35.3076 26.9244 35.3076 27.9059V35.3076H31.6068M24.2051 35.3076H13.1025M18.6538 24.2051V14.953M2 9.4017L18.6538 2L35.3076 9.4017" stroke="#CF102D" stroke-width="4" stroke-linecap="round" stroke-linejoin="round"/>
</svg>
