<svg width="41" height="38" viewBox="0 0 41 38" fill="none" xmlns="http://www.w3.org/2000/svg">
<path d="M7.55469 14.953V7.55127C7.55469 6.07898 8.13955 4.667 9.18062 3.62593C10.2217 2.58486 11.6337 2 13.106 2H27.9094C29.3816 2 30.7936 2.58486 31.8347 3.62593C32.8758 4.667 33.4606 6.07898 33.4606 7.55127V14.953" stroke="#CF102D" stroke-width="4" stroke-linecap="round" stroke-linejoin="round"/>
<path d="M27.9059 24.2052V20.5044C27.9059 19.4065 28.2315 18.3332 28.8415 17.4203C29.4515 16.5074 30.3185 15.7959 31.3328 15.3757C32.3472 14.9555 33.4634 14.8456 34.5402 15.0598C35.6171 15.274 36.6062 15.8027 37.3826 16.5791C38.1589 17.3554 38.6876 18.3446 38.9018 19.4214C39.116 20.4982 39.0061 21.6144 38.5859 22.6288C38.1658 23.6431 37.4542 24.5101 36.5413 25.1201C35.6284 25.7301 34.5552 26.0557 33.4572 26.0557V31.6069H7.55127V26.0557C6.45334 26.0557 5.38006 25.7301 4.46715 25.1201C3.55425 24.5101 2.84273 23.6431 2.42257 22.6288C2.00241 21.6144 1.89247 20.4982 2.10667 19.4214C2.32087 18.3446 2.84957 17.3554 3.62593 16.5791C4.40229 15.8027 5.39143 15.274 6.46828 15.0598C7.54512 14.8456 8.66129 14.9555 9.67565 15.3757C10.69 15.7959 11.557 16.5074 12.167 17.4203C12.777 18.3332 13.1025 19.4065 13.1025 20.5044V24.2052M13.1025 18.654H27.9059M11.2521 31.6069V35.3078M29.7564 31.6069V35.3078" stroke="#CF102D" stroke-width="4" stroke-linecap="round" stroke-linejoin="round"/>
</svg>
