<svg width="41" height="46" viewBox="0 0 41 46" fill="none" xmlns="http://www.w3.org/2000/svg">
<path d="M2 38.9998C2 40.2264 2.48728 41.4028 3.35463 42.2702C4.22199 43.1375 5.39837 43.6248 6.625 43.6248C7.85163 43.6248 9.02801 43.1375 9.89537 42.2702C10.7627 41.4028 11.25 40.2264 11.25 38.9998C11.25 37.7732 10.7627 36.5968 9.89537 35.7294C9.02801 34.8621 7.85163 34.3748 6.625 34.3748C5.39837 34.3748 4.22199 34.8621 3.35463 35.7294C2.48728 36.5968 2 37.7732 2 38.9998ZM27.4375 38.9998C27.4375 40.2264 27.9248 41.4028 28.7921 42.2702C29.6595 43.1375 30.8359 43.6248 32.0625 43.6248C33.2891 43.6248 34.4655 43.1375 35.3329 42.2702C36.2002 41.4028 36.6875 40.2264 36.6875 38.9998C36.6875 37.7732 36.2002 36.5968 35.3329 35.7294C34.4655 34.8621 33.2891 34.3748 32.0625 34.3748C30.8359 34.3748 29.6595 34.8621 28.7921 35.7294C27.9248 36.5968 27.4375 37.7732 27.4375 38.9998Z" stroke="#CF102D" stroke-width="4" stroke-linecap="round" stroke-linejoin="round"/>
<path d="M32.0625 34.375H6.625V2H2" stroke="#CF102D" stroke-width="4" stroke-linecap="round" stroke-linejoin="round"/>
<path d="M6.625 6.625L39 8.9375L36.6875 25.125H6.625" stroke="#CF102D" stroke-width="4" stroke-linecap="round" stroke-linejoin="round"/>
</svg>
