<svg width="34" height="39" viewBox="0 0 34 39" fill="none" xmlns="http://www.w3.org/2000/svg">
<path d="M2 35.1579V31.4737C2 29.5195 2.79015 27.6453 4.19661 26.2634C5.60308 24.8816 7.51066 24.1053 9.49971 24.1053H10.4372M5.74986 9.36842C5.74986 11.3226 6.54 13.1968 7.94647 14.5787C9.35294 15.9605 11.2605 16.7368 13.2496 16.7368C15.2386 16.7368 17.1462 15.9605 18.5527 14.5787C19.9591 13.1968 20.7493 11.3226 20.7493 9.36842C20.7493 7.41419 19.9591 5.54001 18.5527 4.15816C17.1462 2.77631 15.2386 2 13.2496 2C11.2605 2 9.35294 2.77631 7.94647 4.15816C6.54 5.54001 5.74986 7.41419 5.74986 9.36842ZM24.4991 37L30.7801 30.9505C31.1653 30.5833 31.4717 30.144 31.6812 29.6585C31.8907 29.173 31.9991 28.6512 32 28.1239C32.0009 27.5966 31.8942 27.0745 31.6863 26.5883C31.4784 26.1022 31.1735 25.6619 30.7895 25.2934C30.0065 24.5398 28.9546 24.1167 27.8585 24.1147C26.7623 24.1126 25.7088 24.5317 24.9229 25.2824L24.5029 25.6876L24.0848 25.2824C23.3018 24.5293 22.2504 24.1066 21.1547 24.1045C20.059 24.1024 19.0059 24.5212 18.22 25.2713C17.8347 25.6384 17.5282 26.0776 17.3185 26.563C17.1088 27.0485 17.0003 27.5702 16.9992 28.0975C16.9982 28.6249 17.1046 29.147 17.3124 29.6332C17.5201 30.1195 17.8249 30.5598 18.2088 30.9284L24.4991 37Z" stroke="#CF102D" stroke-width="4" stroke-linecap="round" stroke-linejoin="round"/>
</svg>
